<svg id="V2" xmlns="http://www.w3.org/2000/svg" width="1080" height="1080" viewBox="0 0 1080 1080">
  <defs>
    <style>
      .cls-1, .cls-5 {
        fill: #012458;
      }

      .cls-1, .cls-2, .cls-3, .cls-4 {
        fill-rule: evenodd;
      }

      .cls-2 {
        fill: #435ead;
        opacity: 0.59;
      }

      .cls-3 {
        fill: #0078ff;
        opacity: 0.68;
      }

      .cls-4 {
        fill: #fff;
      }

      .cls-5 {
        font-size: 56.913px;
        text-anchor: middle;
        font-family: Montserrat;
        font-weight: 800;
      }

      .cls-6 {
        fill: #005dc9;
      }
    </style>
  </defs>
  <g id="LOGO">
    <path id="Forma_1" data-name="Forma 1" class="cls-1" d="M63.123,460.472a37.728,37.728,0,0,1,31.463-31.463H253.27a38.6,38.6,0,0,1,31.464,34.2V620.524a32,32,0,0,1-25.992,30.1H102.794A34.491,34.491,0,0,1,63.123,617.1V460.472Z"/>
    <path id="Forma_2" data-name="Forma 2" class="cls-2" d="M101.426,649.252a42.345,42.345,0,0,1-.684-10.26c0.286-5.135,3.388-15.7,9.576-25.991,2.659-4.421,5.35-8.682,8.207-13,16.491-24.9,34.937-43.855,58.139-67.715,22.944-23.594,45.035-38.6,70.45-59.506,3.726-3.065,13.686-11.415,27.36-11.628a35.461,35.461,0,0,1,10.26,1.368V621.892A32.231,32.231,0,0,1,256.69,650.62Z"/>
    <path id="Forma_3" data-name="Forma 3" class="cls-3" d="M63.123,571.278a30.089,30.089,0,0,1,6.156-8.892c7.771-7.7,17.993-9.161,25.991-9.576,32.288-1.675,60.925,1.158,97.126,8.208,27.018,5.261,44.608,8.073,65.662,21.887a131.37,131.37,0,0,1,26.676,23.256v15.731a36.318,36.318,0,0,1-12.312,21.2,35.742,35.742,0,0,1-15.732,7.524c-51.534-.176-128.785-1.191-153.9,0-4.306.2-16.769,1.01-26.675-6.84-7.3-5.785-11.475-14.883-13-25.992v-46.51Z"/>
    <path id="Forma_5" data-name="Forma 5" class="cls-4" d="M161.616,611.633V478.256h41.04a24.6,24.6,0,0,1,21.2,23.939v85.5a29.875,29.875,0,0,1-23.255,23.94H161.616Zm21.2-19.836h13a10.476,10.476,0,0,0,7.523-7.524V504.931a9.367,9.367,0,0,0-2.051-4.788,9.777,9.777,0,0,0-7.524-3.42H182.136Z"/>
    <path id="Forma_4" data-name="Forma 4" class="cls-4" d="M124.681,610.949h21.2V477.572h-21.2V610.949Z"/>
  </g>
  <text id="ALLID" class="cls-5" transform="matrix(3.848, 0, 0, 3.848, 669.12, 621.393)"><tspan x="0">ALL<tspan class="cls-6">ID</tspan></tspan></text>
</svg>
