<svg id="V1" xmlns="http://www.w3.org/2000/svg" width="1080" height="1080" viewBox="0 0 1080 1080">
  <defs>
    <style>
      .cls-1, .cls-5 {
        fill: #012458;
      }

      .cls-1, .cls-2, .cls-3, .cls-4 {
        fill-rule: evenodd;
      }

      .cls-2 {
        fill: #435ead;
        opacity: 0.59;
      }

      .cls-3 {
        fill: #0078ff;
        opacity: 0.68;
      }

      .cls-4 {
        fill: #fff;
      }

      .cls-5 {
        font-size: 56.913px;
        text-anchor: middle;
        font-family: Montserrat;
        font-weight: 800;
      }

      .cls-6 {
        fill: #1a73e1;
      }
    </style>
  </defs>
  <g id="LOGO">
    <path id="Forma_1" data-name="Forma 1" class="cls-1" d="M234.465,226.458a103.622,103.622,0,0,1,86.416-86.416H756.716a106.009,106.009,0,0,1,86.415,93.93V666.049a87.89,87.89,0,0,1-71.387,82.659H343.424a94.731,94.731,0,0,1-108.959-92.052v-430.2Z"/>
    <path id="Forma_2" data-name="Forma 2" class="cls-2" d="M339.667,744.951a116.362,116.362,0,0,1-1.879-28.179c0.785-14.105,9.305-43.135,26.3-71.387,7.3-12.142,14.7-23.845,22.544-35.693,45.291-68.385,95.956-120.449,159.681-185.982,63.016-64.8,123.691-106.01,193.5-163.438,10.232-8.417,37.587-31.35,75.144-31.936a97.417,97.417,0,0,1,28.179,3.757V669.807a88.522,88.522,0,0,1-77.023,78.9Z"/>
    <path id="Forma_3" data-name="Forma 3" class="cls-3" d="M234.465,530.79a82.7,82.7,0,0,1,16.908-24.421c21.342-21.152,49.419-25.162,71.386-26.3,88.682-4.6,167.333,3.182,266.761,22.544,74.208,14.45,122.52,22.172,180.346,60.115A360.824,360.824,0,0,1,843.131,626.6v43.208a99.742,99.742,0,0,1-33.815,58.236,98.135,98.135,0,0,1-43.208,20.665c-141.54-.483-353.716-3.27-422.684,0-11.827.56-46.057,2.774-73.265-18.786-20.052-15.889-31.518-40.877-35.694-71.387V530.79Z"/>
    <path id="Forma_5" data-name="Forma 5" class="cls-4" d="M504.983,641.628V275.3H617.7a67.566,67.566,0,0,1,58.237,65.751V575.877a82.053,82.053,0,0,1-63.873,65.751H504.983Zm58.237-54.48h35.693a28.782,28.782,0,0,0,20.665-20.664V348.566a25.725,25.725,0,0,0-5.636-13.15,26.843,26.843,0,0,0-20.665-9.393H561.341Q562.28,456.586,563.22,587.148Z"/>
    <path id="Forma_4" data-name="Forma 4" class="cls-4" d="M403.539,639.749h58.237V273.422H403.539V639.749Z"/>
  </g>
  <text id="ALLID" class="cls-5" transform="matrix(3.306, 0, 0, 3.306, 540.584, 943.988)"><tspan x="0">ALL<tspan class="cls-6">ID</tspan></tspan></text>
</svg>
